<svg xmlns="http://www.w3.org/2000/svg" viewBox="0 0 1600 1000" width="1600" height="1000">
  <defs>
    <linearGradient id="bg" x1="0%" y1="0%" x2="100%" y2="100%">
      <stop offset="0%" style="stop-color:#050505"/>
      <stop offset="100%" style="stop-color:#0c0c0c"/>
    </linearGradient>
    <linearGradient id="bar1" x1="0%" y1="0%" x2="0%" y2="100%">
      <stop offset="0%" style="stop-color:#6366f1"/>
      <stop offset="100%" style="stop-color:#4338ca"/>
    </linearGradient>
    <linearGradient id="bar2" x1="0%" y1="0%" x2="0%" y2="100%">
      <stop offset="0%" style="stop-color:#2a2a3a"/>
      <stop offset="100%" style="stop-color:#1a1a28"/>
    </linearGradient>
  </defs>

  <rect width="1600" height="1000" fill="url(#bg)"/>

  <!-- Sidebar -->
  <rect x="0" y="0" width="220" height="1000" fill="#080810"/>
  <rect x="220" y="0" width="1" height="1000" fill="#1a1a28"/>

  <!-- Sidebar nav items -->
  <text x="28" y="52" font-family="Arial Black, sans-serif" font-size="16" font-weight="900" fill="#f5f5f5" letter-spacing="-0.5">Logboard</text>
  <rect x="0" y="68" width="220" height="1" fill="#1a1a28"/>

  <rect x="8" y="88" width="204" height="36" rx="6" fill="#13131e"/>
  <text x="24" y="111" font-family="Arial, sans-serif" font-size="12" fill="#f5f5f5"> Dashboard</text>

  <text x="24" y="155" font-family="Arial, sans-serif" font-size="12" fill="#3f3f46">=Ę Analytics</text>
  <text x="24" y="183" font-family="Arial, sans-serif" font-size="12" fill="#3f3f46">=4 Errors</text>
  <text x="24" y="211" font-family="Arial, sans-serif" font-size="12" fill="#3f3f46">ˇ Performance</text>
  <text x="24" y="239" font-family="Arial, sans-serif" font-size="12" fill="#3f3f46">< Requests</text>
  <text x="24" y="267" font-family="Arial, sans-serif" font-size="12" fill="#3f3f46">=d Users</text>
  <rect x="8" y="284" width="204" height="1" fill="#1a1a28"/>
  <text x="24" y="308" font-family="Arial, sans-serif" font-size="12" fill="#3f3f46">™ Settings</text>

  <!-- Main content -->
  <!-- Header bar -->
  <rect x="220" y="0" width="1380" height="52" fill="#080810"/>
  <rect x="220" y="52" width="1380" height="1" fill="#1a1a28"/>
  <text x="248" y="33" font-family="Arial Black, sans-serif" font-size="14" font-weight="700" fill="#f5f5f5">Dashboard</text>
  <text x="1350" y="33" font-family="Arial, sans-serif" font-size="11" fill="#3f3f46">Last 30 days  ľ</text>
  <circle cx="1500" cy="26" r="14" fill="#1a1a28"/>
  <text x="1500" y="31" font-family="Arial, sans-serif" font-size="11" fill="#f5f5f5" text-anchor="middle">K</text>

  <!-- Stats cards row -->
  <rect x="248" y="76" width="300" height="120" rx="8" fill="#0d0d18" stroke="#1a1a28" stroke-width="1"/>
  <text x="268" y="106" font-family="Arial, sans-serif" font-size="11" fill="#3f3f46" letter-spacing="2">TOTAL REQUESTS</text>
  <text x="268" y="152" font-family="Arial Black, sans-serif" font-size="36" font-weight="900" fill="#f5f5f5">2.4M</text>
  <text x="268" y="178" font-family="Arial, sans-serif" font-size="11" fill="#4ade80">˛ 12.3%  vs last period</text>

  <rect x="572" y="76" width="300" height="120" rx="8" fill="#0d0d18" stroke="#1a1a28" stroke-width="1"/>
  <text x="592" y="106" font-family="Arial, sans-serif" font-size="11" fill="#3f3f46" letter-spacing="2">ERROR RATE</text>
  <text x="592" y="152" font-family="Arial Black, sans-serif" font-size="36" font-weight="900" fill="#f5f5f5">0.08%</text>
  <text x="592" y="178" font-family="Arial, sans-serif" font-size="11" fill="#4ade80">Ľ 0.02%  improvement</text>

  <rect x="896" y="76" width="300" height="120" rx="8" fill="#0d0d18" stroke="#1a1a28" stroke-width="1"/>
  <text x="916" y="106" font-family="Arial, sans-serif" font-size="11" fill="#3f3f46" letter-spacing="2">AVG RESPONSE</text>
  <text x="916" y="152" font-family="Arial Black, sans-serif" font-size="36" font-weight="900" fill="#f5f5f5">48ms</text>
  <text x="916" y="178" font-family="Arial, sans-serif" font-size="11" fill="#4ade80">Ľ 8ms  faster</text>

  <rect x="1220" y="76" width="300" height="120" rx="8" fill="#0d0d18" stroke="#1a1a28" stroke-width="1"/>
  <text x="1240" y="106" font-family="Arial, sans-serif" font-size="11" fill="#3f3f46" letter-spacing="2">ACTIVE USERS</text>
  <text x="1240" y="152" font-family="Arial Black, sans-serif" font-size="36" font-weight="900" fill="#f5f5f5">1,847</text>
  <text x="1240" y="178" font-family="Arial, sans-serif" font-size="11" fill="#4ade80">˛ 4.1%  this week</text>

  <!-- Chart section -->
  <rect x="248" y="224" width="820" height="380" rx="8" fill="#0d0d18" stroke="#1a1a28" stroke-width="1"/>
  <text x="272" y="258" font-family="Arial Black, sans-serif" font-size="13" font-weight="700" fill="#f5f5f5">Requests over time</text>
  <text x="1044" y="258" font-family="Arial, sans-serif" font-size="11" fill="#3f3f46">Daily  Weekly</text>

  <!-- Bar chart -->
  <!-- Y axis labels -->
  <text x="262" y="316" font-family="monospace, Courier New" font-size="10" fill="#2a2a3a">100k</text>
  <text x="262" y="366" font-family="monospace, Courier New" font-size="10" fill="#2a2a3a">75k</text>
  <text x="262" y="416" font-family="monospace, Courier New" font-size="10" fill="#2a2a3a">50k</text>
  <text x="262" y="466" font-family="monospace, Courier New" font-size="10" fill="#2a2a3a">25k</text>
  <text x="268" y="516" font-family="monospace, Courier New" font-size="10" fill="#2a2a3a">0</text>

  <!-- Grid lines -->
  <line x1="306" y1="310" x2="1044" y2="310" stroke="#13131e" stroke-width="1"/>
  <line x1="306" y1="360" x2="1044" y2="360" stroke="#13131e" stroke-width="1"/>
  <line x1="306" y1="410" x2="1044" y2="410" stroke="#13131e" stroke-width="1"/>
  <line x1="306" y1="460" x2="1044" y2="460" stroke="#13131e" stroke-width="1"/>
  <line x1="306" y1="510" x2="1044" y2="510" stroke="#13131e" stroke-width="1"/>

  <!-- Bars - 14 bars representing days -->
  <rect x="316" y="436" width="40" height="74" rx="3" fill="url(#bar2)"/>
  <rect x="370" y="412" width="40" height="98" rx="3" fill="url(#bar2)"/>
  <rect x="424" y="388" width="40" height="122" rx="3" fill="url(#bar2)"/>
  <rect x="478" y="420" width="40" height="90" rx="3" fill="url(#bar2)"/>
  <rect x="532" y="400" width="40" height="110" rx="3" fill="url(#bar2)"/>
  <rect x="586" y="376" width="40" height="134" rx="3" fill="url(#bar2)"/>
  <rect x="640" y="356" width="40" height="154" rx="3" fill="url(#bar2)"/>
  <rect x="694" y="330" width="40" height="180" rx="3" fill="url(#bar1)"/>
  <rect x="748" y="316" width="40" height="194" rx="3" fill="url(#bar1)"/>
  <rect x="802" y="344" width="40" height="166" rx="3" fill="url(#bar1)"/>
  <rect x="856" y="320" width="40" height="190" rx="3" fill="url(#bar1)"/>
  <rect x="910" y="308" width="40" height="202" rx="3" fill="url(#bar1)"/>
  <rect x="964" y="322" width="40" height="188" rx="3" fill="url(#bar1)"/>
  <rect x="1018" y="310" width="40" height="200" rx="3" fill="url(#bar1)"/>

  <!-- X labels -->
  <text x="336" y="534" font-family="monospace, Courier New" font-size="9" fill="#3f3f46" text-anchor="middle">May 19</text>
  <text x="444" y="534" font-family="monospace, Courier New" font-size="9" fill="#3f3f46" text-anchor="middle">May 21</text>
  <text x="552" y="534" font-family="monospace, Courier New" font-size="9" fill="#3f3f46" text-anchor="middle">May 23</text>
  <text x="660" y="534" font-family="monospace, Courier New" font-size="9" fill="#3f3f46" text-anchor="middle">May 25</text>
  <text x="768" y="534" font-family="monospace, Courier New" font-size="9" fill="#3f3f46" text-anchor="middle">May 27</text>
  <text x="876" y="534" font-family="monospace, Courier New" font-size="9" fill="#3f3f46" text-anchor="middle">May 29</text>
  <text x="984" y="534" font-family="monospace, Courier New" font-size="9" fill="#3f3f46" text-anchor="middle">May 31</text>

  <!-- Tooltip on last bar -->
  <rect x="970" y="260" width="120" height="46" rx="6" fill="#1a1a28" stroke="#6366f1" stroke-width="1"/>
  <text x="980" y="279" font-family="monospace, Courier New" font-size="10" fill="#6366f1">May 31</text>
  <text x="980" y="297" font-family="monospace, Courier New" font-size="11" fill="#f5f5f5" font-weight="bold">98,421 req</text>

  <!-- Right panel: Recent errors -->
  <rect x="1092" y="224" width="428" height="380" rx="8" fill="#0d0d18" stroke="#1a1a28" stroke-width="1"/>
  <text x="1112" y="258" font-family="Arial Black, sans-serif" font-size="13" font-weight="700" fill="#f5f5f5">Recent Errors</text>

  <!-- Error items -->
  <rect x="1112" y="270" width="388" height="64" rx="6" fill="#130808" stroke="#3d0a0a" stroke-width="1"/>
  <text x="1128" y="292" font-family="monospace, Courier New" font-size="11" fill="#f87171">TypeError: Cannot read props of undefined</text>
  <text x="1128" y="310" font-family="monospace, Courier New" font-size="10" fill="#3f3f46">app/dashboard/page.tsx:42</text>
  <text x="1128" y="325" font-family="monospace, Courier New" font-size="9" fill="#2a2a2a">2 min ago · 3 occurrences</text>

  <rect x="1112" y="348" width="388" height="64" rx="6" fill="#130808" stroke="#2a1010" stroke-width="1"/>
  <text x="1128" y="370" font-family="monospace, Courier New" font-size="11" fill="#fca5a5">500: Internal Server Error</text>
  <text x="1128" y="388" font-family="monospace, Courier New" font-size="10" fill="#3f3f46">api/users/route.ts:78</text>
  <text x="1128" y="403" font-family="monospace, Courier New" font-size="9" fill="#2a2a2a">18 min ago · 1 occurrence</text>

  <rect x="1112" y="426" width="388" height="64" rx="6" fill="#0a1008" stroke="#1a2a10" stroke-width="1"/>
  <text x="1128" y="448" font-family="monospace, Courier New" font-size="11" fill="#86efac">Promise resolved successfully</text>
  <text x="1128" y="466" font-family="monospace, Courier New" font-size="10" fill="#3f3f46">lib/email.ts:12  was failing</text>
  <text x="1128" y="481" font-family="monospace, Courier New" font-size="9" fill="#2a2a2a">1 hr ago · resolved</text>

  <rect x="1112" y="504" width="388" height="64" rx="6" fill="#130808" stroke="#2a1010" stroke-width="1"/>
  <text x="1128" y="526" font-family="monospace, Courier New" font-size="11" fill="#fca5a5">RateLimitError: Too many requests</text>
  <text x="1128" y="544" font-family="monospace, Courier New" font-size="10" fill="#3f3f46">middleware.ts:31</text>
  <text x="1128" y="559" font-family="monospace, Courier New" font-size="9" fill="#2a2a2a">3 hr ago · 14 occurrences</text>

  <!-- Log stream -->
  <rect x="248" y="624" width="1272" height="300" rx="8" fill="#080810" stroke="#1a1a28" stroke-width="1"/>
  <text x="272" y="656" font-family="Arial Black, sans-serif" font-size="13" font-weight="700" fill="#f5f5f5">Live Log Stream</text>
  <circle cx="1480" cy="648" r="5" fill="#4ade80"/>
  <text x="1492" y="652" font-family="Arial, sans-serif" font-size="10" fill="#4ade80">LIVE</text>

  <text x="272" y="682" font-family="monospace, Courier New" font-size="11" fill="#1a3a1a">14:23:01</text>
  <text x="360" y="682" font-family="monospace, Courier New" font-size="11" fill="#3fb950"> INFO</text>
  <text x="416" y="682" font-family="monospace, Courier New" font-size="11" fill="#4a4a5a"> GET /api/posts 200 22ms userId=u_2k3j</text>

  <text x="272" y="704" font-family="monospace, Courier New" font-size="11" fill="#1a3a1a">14:23:02</text>
  <text x="360" y="704" font-family="monospace, Courier New" font-size="11" fill="#3fb950"> INFO</text>
  <text x="416" y="704" font-family="monospace, Courier New" font-size="11" fill="#4a4a5a"> POST /api/auth/signin 200 48ms</text>

  <text x="272" y="726" font-family="monospace, Courier New" font-size="11" fill="#3a1a1a">14:23:03</text>
  <text x="360" y="726" font-family="monospace, Courier New" font-size="11" fill="#f87171"> WARN</text>
  <text x="416" y="726" font-family="monospace, Courier New" font-size="11" fill="#4a4a5a"> GET /api/users/me 401 Unauthorized</text>

  <text x="272" y="748" font-family="monospace, Courier New" font-size="11" fill="#1a3a1a">14:23:04</text>
  <text x="360" y="748" font-family="monospace, Courier New" font-size="11" fill="#3fb950"> INFO</text>
  <text x="416" y="748" font-family="monospace, Courier New" font-size="11" fill="#4a4a5a"> GET /api/dashboard 200 31ms userId=u_9x1m</text>

  <text x="272" y="770" font-family="monospace, Courier New" font-size="11" fill="#3a1a1a">14:23:05</text>
  <text x="360" y="770" font-family="monospace, Courier New" font-size="11" fill="#f87171"> ERROR</text>
  <text x="420" y="770" font-family="monospace, Courier New" font-size="11" fill="#4a4a5a"> TypeError at app/dashboard/page.tsx:42</text>

  <text x="272" y="792" font-family="monospace, Courier New" font-size="11" fill="#1a3a1a">14:23:06</text>
  <text x="360" y="792" font-family="monospace, Courier New" font-size="11" fill="#3fb950"> INFO</text>
  <text x="416" y="792" font-family="monospace, Courier New" font-size="11" fill="#4a4a5a"> POST /api/posts 201 Created 56ms</text>

  <text x="272" y="814" font-family="monospace, Courier New" font-size="11" fill="#1a3a1a">14:23:07</text>
  <text x="360" y="814" font-family="monospace, Courier New" font-size="11" fill="#3fb950"> INFO</text>
  <text x="416" y="814" font-family="monospace, Courier New" font-size="11" fill="#4a4a5a"> GET /api/analytics 200 18ms</text>

  <!-- Blinking cursor at end -->
  <rect x="272" y="828" width="8" height="16" fill="#6366f1" opacity="0.8"/>

  <!-- Bottom label -->
  <text x="900" y="975" font-family="monospace, Courier New" font-size="10" fill="#3f3f46" text-anchor="middle" letter-spacing="3">NEXT.JS · CLOUDFLARE D1 · REAL-TIME LOGGING DASHBOARD</text>
</svg>
