<svg xmlns="http://www.w3.org/2000/svg" viewBox="0 0 1200 675" width="1200" height="675">
  <defs>
    <linearGradient id="bg" x1="0%" y1="0%" x2="100%" y2="100%">
      <stop offset="0%" style="stop-color:#08030e"/>
      <stop offset="100%" style="stop-color:#0c0618"/>
    </linearGradient>
  </defs>
  <rect width="1200" height="675" fill="url(#bg)"/>

  
      <!-- Color swatches -->
      <rect x="820" y="100" width="40" height="40" rx="4" fill="#1a0830"/>
      <rect x="868" y="100" width="40" height="40" rx="4" fill="#2d1050"/>
      <rect x="916" y="100" width="40" height="40" rx="4" fill="#4a1880"/>
      <rect x="964" y="100" width="40" height="40" rx="4" fill="#7c3aed"/>
      <rect x="1012" y="100" width="40" height="40" rx="4" fill="#a78bfa"/>
      <rect x="1060" y="100" width="40" height="40" rx="4" fill="#ddd6fe"/>
      <rect x="1108" y="100" width="40" height="40" rx="4" fill="#f5f3ff"/>
      <!-- Component boxes -->
      <rect x="820" y="168" width="140" height="52" rx="6" fill="#0c0618" stroke="#2d1050" stroke-width="1"/>
      <text x="890" y="198" font-family="monospace" font-size="10" fill="#7c3aed" text-anchor="middle">Button</text>
      <rect x="972" y="168" width="176" height="52" rx="6" fill="#0c0618" stroke="#2d1050" stroke-width="1"/>
      <text x="1060" y="198" font-family="monospace" font-size="10" fill="#7c3aed" text-anchor="middle">Input</text>
      <rect x="820" y="238" width="100" height="36" rx="6" fill="#4a1880" stroke="none"/>
      <text x="870" y="261" font-family="monospace" font-size="10" fill="#f5f3ff" text-anchor="middle">Primary</text>
      <rect x="930" y="238" width="100" height="36" rx="6" fill="#0c0618" stroke="#4a1880" stroke-width="1"/>
      <text x="980" y="261" font-family="monospace" font-size="10" fill="#7c3aed" text-anchor="middle">Ghost</text>
      <rect x="1040" y="238" width="108" height="36" rx="18" fill="#0c0618" stroke="#2d1050" stroke-width="1"/>
      <text x="1094" y="261" font-family="monospace" font-size="10" fill="#a78bfa" text-anchor="middle">Rounded</text>
      <!-- Typography scale -->
      <text x="820" y="320" font-family="Arial Black, sans-serif" font-size="20" font-weight="900" fill="#7c3aed">Aa</text>
      <text x="870" y="320" font-family="Arial Black, sans-serif" font-size="16" font-weight="700" fill="#4a1880">Bb</text>
      <text x="912" y="320" font-family="Arial, sans-serif" font-size="14" fill="#2d1050">Cc</text>
      <text x="944" y="320" font-family="monospace" font-size="11" fill="#1a0830">Mono</text>
    

  <!-- Category -->
  <text x="48" y="72" font-family="Arial, sans-serif" font-size="10" fill="#581c87" letter-spacing="4">DESIGN · FRONTEND · ARCHITECTURE</text>

  <!-- Title -->
  <text x="48" y="180" font-family="Arial Black, sans-serif" font-size="56" font-weight="900" fill="#f5f5f5" letter-spacing="-2">Building a Design</text>
  <text x="48" y="252" font-family="Arial Black, sans-serif" font-size="56" font-weight="900" fill="#f5f5f5" letter-spacing="-2">System From</text>
  <text x="48" y="324" font-family="Arial Black, sans-serif" font-size="56" font-weight="900" fill="none" stroke="#1a0830" stroke-width="1.5" letter-spacing="-2">Scratch in 2026</text>

  <!-- Description -->
  <text x="48" y="392" font-family="Arial, sans-serif" font-size="15" fill="#52525b">Tailwind + Radix UI + Storybook —</text>
  <text x="48" y="414" font-family="Arial, sans-serif" font-size="15" fill="#52525b">the decisions I made and the ones I regret.</text>

  <!-- Meta bar -->
  <rect x="0" y="610" width="1200" height="65" fill="#08030e" opacity="0.9"/>
  <line x1="0" y1="610" x2="1200" y2="610" stroke="#1a0830" stroke-width="1"/>
  <text x="48" y="652" font-family="Arial, sans-serif" font-size="12" fill="#3f3f46">Apr 20, 2026</text>
  <text x="220" y="652" font-family="Arial, sans-serif" font-size="12" fill="#3f3f46">13 min read</text>
  <text x="1152" y="652" font-family="Arial, sans-serif" font-size="11" fill="#581c87" text-anchor="end">kienhee.com</text>
</svg>