<svg xmlns="http://www.w3.org/2000/svg" viewBox="0 0 1200 675" width="1200" height="675">
  <defs>
    <linearGradient id="bg" x1="0%" y1="0%" x2="100%" y2="100%">
      <stop offset="0%" style="stop-color:#030804"/>
      <stop offset="100%" style="stop-color:#060e06"/>
    </linearGradient>
  </defs>
  <rect width="1200" height="675" fill="url(#bg)"/>

  
      <!-- Git branch diagram -->
      <!-- main branch line -->
      <line x1="850" y1="200" x2="1150" y2="200" stroke="#14532d" stroke-width="2"/>
      <!-- Commits on main -->
      <circle cx="880" cy="200" r="7" fill="#14532d"/>
      <circle cx="960" cy="200" r="7" fill="#14532d"/>
      <circle cx="1040" cy="200" r="7" fill="#14532d"/>
      <circle cx="1120" cy="200" r="7" fill="#22c55e"/>
      <!-- Feature branch -->
      <path d="M 960 200 Q 980 160 1000 140" stroke="#1e40af" stroke-width="1.5" fill="none"/>
      <line x1="1000" y1="140" x2="1060" y2="140" stroke="#1e40af" stroke-width="1.5"/>
      <path d="M 1060 140 Q 1080 160 1100 200" stroke="#1e40af" stroke-width="1.5" fill="none"/>
      <circle cx="1000" cy="140" r="5" fill="#1e40af"/>
      <circle cx="1040" cy="140" r="5" fill="#1e40af"/>
      <circle cx="1060" cy="140" r="5" fill="#1e40af"/>
      <!-- Labels -->
      <text x="845" y="228" font-family="monospace" font-size="9" fill="#14532d">main</text>
      <text x="980" y="128" font-family="monospace" font-size="9" fill="#1e40af">feat/new-feature</text>
      <!-- Commit messages -->
      <text x="856" y="258" font-family="monospace" font-size="8" fill="#1a3a1a">chore: init</text>
      <text x="928" y="258" font-family="monospace" font-size="8" fill="#1a3a1a">feat: auth</text>
      <text x="1000" y="258" font-family="monospace" font-size="8" fill="#1a3a1a">merge</text>
      <text x="1078" y="258" font-family="monospace" font-size="8" fill="#22c55e">v1.0.0 🏷</text>
      <!-- Tag -->
      <rect x="1096" y="170" width="56" height="20" rx="4" fill="#0a1e0a" stroke="#14532d" stroke-width="1"/>
      <text x="1124" y="184" font-family="monospace" font-size="8" fill="#4ade80" text-anchor="middle">v1.0.0</text>
      <!-- Terminal snippet -->
      <rect x="820" y="300" width="330" height="80" rx="6" fill="#030804" stroke="#0a1e0a" stroke-width="1"/>
      <text x="836" y="324" font-family="monospace" font-size="10" fill="#22c55e">$</text>
      <text x="852" y="324" font-family="monospace" font-size="10" fill="#4a4a5a"> git switch -c feat/dashboard</text>
      <text x="836" y="344" font-family="monospace" font-size="10" fill="#22c55e">$</text>
      <text x="852" y="344" font-family="monospace" font-size="10" fill="#4a4a5a"> git add -p</text>
      <text x="836" y="364" font-family="monospace" font-size="10" fill="#22c55e">$</text>
      <text x="852" y="364" font-family="monospace" font-size="10" fill="#4a4a5a"> git commit -m "feat: dashboard"</text>
    

  <!-- Category -->
  <text x="48" y="72" font-family="Arial, sans-serif" font-size="10" fill="#14532d" letter-spacing="4">GIT · TOOLS · PRODUCTIVITY</text>

  <!-- Title -->
  <text x="48" y="180" font-family="Arial Black, sans-serif" font-size="56" font-weight="900" fill="#f5f5f5" letter-spacing="-2">My Git Workflow</text>
  <text x="48" y="252" font-family="Arial Black, sans-serif" font-size="56" font-weight="900" fill="#f5f5f5" letter-spacing="-2">as a Solo</text>
  <text x="48" y="324" font-family="Arial Black, sans-serif" font-size="56" font-weight="900" fill="none" stroke="#0a1e0a" stroke-width="1.5" letter-spacing="-2">Developer</text>

  <!-- Description -->
  <text x="48" y="392" font-family="Arial, sans-serif" font-size="15" fill="#52525b">Trunk-based development for one —</text>
  <text x="48" y="414" font-family="Arial, sans-serif" font-size="15" fill="#52525b">branches, commits, and tags that scale.</text>

  <!-- Meta bar -->
  <rect x="0" y="610" width="1200" height="65" fill="#030804" opacity="0.9"/>
  <line x1="0" y1="610" x2="1200" y2="610" stroke="#0a1e0a" stroke-width="1"/>
  <text x="48" y="652" font-family="Arial, sans-serif" font-size="12" fill="#3f3f46">Jan 15, 2026</text>
  <text x="220" y="652" font-family="Arial, sans-serif" font-size="12" fill="#3f3f46">6 min read</text>
  <text x="1152" y="652" font-family="Arial, sans-serif" font-size="11" fill="#14532d" text-anchor="end">kienhee.com</text>
</svg>