<svg xmlns="http://www.w3.org/2000/svg" viewBox="0 0 1200 675" width="1200" height="675">
  <defs>
    <linearGradient id="bg" x1="0%" y1="0%" x2="100%" y2="100%">
      <stop offset="0%" style="stop-color:#06040f"/>
      <stop offset="100%" style="stop-color:#0d0820"/>
    </linearGradient>
  </defs>
  <rect width="1200" height="675" fill="url(#bg)"/>

  <!-- Decorative component tree lines -->
  <line x1="900" y1="60" x2="900" y2="200" stroke="#1a1040" stroke-width="1"/>
  <line x1="900" y1="200" x2="980" y2="260" stroke="#1a1040" stroke-width="1"/>
  <line x1="900" y1="200" x2="820" y2="260" stroke="#1a1040" stroke-width="1"/>
  <line x1="980" y1="260" x2="1040" y2="320" stroke="#1a1040" stroke-width="1"/>
  <line x1="980" y1="260" x2="940" y2="320" stroke="#1a1040" stroke-width="1"/>
  <line x1="820" y1="260" x2="780" y2="320" stroke="#1a1040" stroke-width="1"/>
  <line x1="820" y1="260" x2="860" y2="320" stroke="#1a1040" stroke-width="1"/>
  <!-- Nodes -->
  <rect x="872" y="50" width="56" height="22" rx="4" fill="#1a0a40" stroke="#4c1d95" stroke-width="1"/>
  <text x="900" y="65" font-family="monospace" font-size="9" fill="#7c3aed" text-anchor="middle">Page</text>
  <rect x="800" y="248" width="40" height="18" rx="3" fill="#0a1a40" stroke="#1e3a8a" stroke-width="1"/>
  <text x="820" y="261" font-family="monospace" font-size="8" fill="#3b82f6" text-anchor="middle">Nav</text>
  <rect x="958" y="248" width="44" height="18" rx="3" fill="#0a1a40" stroke="#1e3a8a" stroke-width="1"/>
  <text x="980" y="261" font-family="monospace" font-size="8" fill="#3b82f6" text-anchor="middle">Main</text>
  <rect x="756" y="308" width="48" height="18" rx="3" fill="#0f0a30" stroke="#312e81" stroke-width="1"/>
  <text x="780" y="321" font-family="monospace" font-size="7" fill="#6366f1" text-anchor="middle">Logo</text>
  <rect x="840" y="308" width="40" height="18" rx="3" fill="#150a30" stroke="#4c1d95" stroke-width="1"/>
  <text x="860" y="321" font-family="monospace" font-size="7" fill="#8b5cf6" text-anchor="middle">Links</text>
  <rect x="1018" y="308" width="44" height="18" rx="3" fill="#0a200a" stroke="#14532d" stroke-width="1"/>
  <text x="1040" y="321" font-family="monospace" font-size="7" fill="#22c55e" text-anchor="middle">PostList</text>
  <rect x="918" y="308" width="44" height="18" rx="3" fill="#200a0a" stroke="#7f1d1d" stroke-width="1"/>
  <text x="940" y="321" font-family="monospace" font-size="7" fill="#ef4444" text-anchor="middle">Search</text>
  <!-- Server badge -->
  <rect x="856" y="378" width="88" height="18" rx="9" fill="#0a200a" stroke="#14532d" stroke-width="1"/>
  <circle cx="870" cy="387" r="3" fill="#22c55e"/>
  <text x="906" y="391" font-family="monospace" font-size="8" fill="#22c55e" text-anchor="middle">Server</text>
  <!-- Client badge -->
  <rect x="916" y="400" width="72" height="18" rx="9" fill="#200a0a" stroke="#7f1d1d" stroke-width="1"/>
  <circle cx="928" cy="409" r="3" fill="#ef4444"/>
  <text x="952" y="413" font-family="monospace" font-size="8" fill="#ef4444" text-anchor="middle">Client</text>

  <!-- Category -->
  <text x="48" y="72" font-family="Arial, sans-serif" font-size="10" fill="#4c1d95" letter-spacing="4">REACT · NEXT.JS · ARCHITECTURE</text>

  <!-- Title -->
  <text x="48" y="180" font-family="Arial Black, sans-serif" font-size="58" font-weight="900" fill="#f5f5f5" letter-spacing="-2">Understanding</text>
  <text x="48" y="256" font-family="Arial Black, sans-serif" font-size="58" font-weight="900" fill="#f5f5f5" letter-spacing="-2">React Server</text>
  <text x="48" y="332" font-family="Arial Black, sans-serif" font-size="58" font-weight="900" fill="none" stroke="#2a1060" stroke-width="1.5" letter-spacing="-2">Components</text>

  <!-- Description -->
  <text x="48" y="400" font-family="Arial, sans-serif" font-size="15" fill="#52525b">A deep dive into RSC architecture,</text>
  <text x="48" y="422" font-family="Arial, sans-serif" font-size="15" fill="#52525b">mental models, and practical patterns.</text>

  <!-- Meta -->
  <rect x="0" y="610" width="1200" height="65" fill="#06040f" opacity="0.8"/>
  <text x="48" y="652" font-family="Arial, sans-serif" font-size="12" fill="#3f3f46">May 20, 2026</text>
  <text x="280" y="652" font-family="Arial, sans-serif" font-size="12" fill="#3f3f46">8 min read</text>
  <text x="1152" y="652" font-family="Arial, sans-serif" font-size="11" fill="#4c1d95" text-anchor="end">kienhee.com</text>
</svg>
